mtllib bend.mtl
o object1
g object1
v -0.00000000 5.72203638 -1.37571568
v 0.00000000 5.00000000 -1.55368278
v -3.00000000 5.00000000 -1.55368278
v -3.00000000 5.72203638 -1.37571568
v -3.00000000 6.27865574 -0.88259258
v -0.00000000 6.27865574 -0.88259258
v -3.00000000 6.54235400 -0.18728139
v 0.00000000 6.54235400 -0.18728139
v -3.00000000 6.45271789 0.55094545
v -0.00000000 6.45271789 0.55094545
v -3.00000000 6.03028271 1.16294785
v -0.00000000 6.03028271 1.16294785
v -3.00000000 5.37182167 1.50853532
v 0.00000000 5.37182167 1.50853532
v -3.00000000 4.62817833 1.50853532
v 0.00000000 4.62817833 1.50853532
v -3.00000000 3.96971729 1.16294785
v -0.00000000 3.96971729 1.16294785
v -3.00000000 3.54728211 0.55094545
v -0.00000000 3.54728211 0.55094545
v -3.00000000 3.45764600 -0.18728139
v 0.00000000 3.45764600 -0.18728139
v -3.00000000 3.72134426 -0.88259258
v -0.00000000 3.72134426 -0.88259258
v -3.00000000 4.27796362 -1.37571568
v -0.00000000 4.27796362 -1.37571568
v -5.95496026 5.13398047 -1.37571788
v -8.46030133 3.46030133 -1.37571788
v -10.13398047 0.95496026 -1.37571788
v -6.16796134 5.64821601 -0.88259220
v -10.64821601 1.16796134 -0.88259220
v -6.26886999 5.89183362 -0.18727366
v -10.89183362 1.26886999 -0.18727366
v -6.23456942 5.80902383 0.55094210
v -10.80902383 1.23456942 0.55094210
v -6.07291705 5.41875636 1.16294842
v -10.41875636 1.07291705 1.16294842
v -5.82094576 4.81043743 1.50853583
v -9.81043743 0.82094576 1.50853583
v -5.53638021 4.12342816 1.50853583
v -9.12342816 0.53638021 1.50853583
v -5.28440892 3.51510924 1.16294842
v -8.51510924 0.28440892 1.16294842
v -5.12275655 3.12484177 0.55094210
v -8.12484177 0.12275655 0.55094210
v -5.08845597 3.04203198 -0.18727366
v -8.04203198 0.08845597 -0.18727366
v -5.18936462 3.28564959 -0.88259220
v -8.28564959 0.18936462 -0.88259220
v -5.40236571 3.79988512 -1.37571788
v -8.79988512 0.40236571 -1.37571788
v -7.43919360 2.43919360 -1.37571788
v -5.67867170 4.46692919 -1.55368278
v -7.94974747 2.94974747 -1.55368278
v -9.46692919 0.67867170 -1.55368278
v -10.00000000 -2.00000000 -1.55368278
v -10.72203638 -2.00000000 -1.37571568
v -11.27865574 -2.00000000 -0.88259258
v -11.54235400 -2.00000000 -0.18728139
v -11.45271789 -2.00000000 0.55094545
v -11.03028271 -2.00000000 1.16294785
v -10.37182167 -2.00000000 1.50853532
v -9.62817833 -2.00000000 1.50853532
v -8.96971729 -2.00000000 1.16294785
v -8.54728211 -2.00000000 0.55094545
v -8.45764600 -2.00000000 -0.18728139
v -8.72134426 -2.00000000 -0.88259258
v -9.27796362 -2.00000000 -1.37571568
v -8.85389380 3.85389380 -0.88259220
v -9.04035710 4.04035710 -0.18727366
v -8.97697504 3.97697504 0.55094210
v -8.67826691 3.67826691 1.16294842
v -8.21266364 3.21266364 1.50853583
v -7.68683130 2.68683130 1.50853583
v -7.22122803 2.22122803 1.16294842
v -6.92251990 1.92251990 0.55094210
v -6.85913783 1.85913783 -0.18727366
v -7.04560113 2.04560113 -0.88259220
v -10.00000000 -5.00000000 -1.55368278
v -10.72203638 -5.00000000 -1.37571568
v -11.27865574 -5.00000000 -0.88259258
v -11.54235400 -5.00000000 -0.18728139
v -11.45271789 -5.00000000 0.55094545
v -11.03028271 -5.00000000 1.16294785
v -10.37182167 -5.00000000 1.50853532
v -9.62817833 -5.00000000 1.50853532
v -8.96971729 -5.00000000 1.16294785
v -8.54728211 -5.00000000 0.55094545
v -8.45764600 -5.00000000 -0.18728139
v -8.72134426 -5.00000000 -0.88259258
v -9.27796362 -5.00000000 -1.37571568
v 0.00000000 5.00000000 0.00000019
v -10.00000000 -5.00000000 0.00000019
vt 0.00000000 0.07907041
vt 0.00000000 0.00000000
vt 1.00000000 0.00000000
vt 1.00000000 0.07907041
vt 1.00000000 0.15242301
vt 0.00000000 0.15242301
vt 1.00000000 0.22913693
vt 0.00000000 0.22913693
vt 1.00000000 0.31021977
vt 0.00000000 0.31021977
vt 1.00000000 0.38411875
vt 0.00000000 0.38411875
vt 1.00000000 0.45912667
vt 0.00000000 0.45912667
vt 1.00000000 0.54087333
vt 0.00000000 0.54087333
vt 1.00000000 0.61588125
vt 0.00000000 0.61588125
vt 1.00000000 0.68978023
vt 0.00000000 0.68978023
vt 1.00000000 0.77086307
vt 0.00000000 0.77086307
vt 1.00000000 0.84757699
vt 0.00000000 0.84757699
vt 1.00000000 0.92092959
vt 0.00000000 0.92092959
vt 1.00000000 1.00000000
vt 0.00000000 1.00000000
vt 0.25986482 0.07907041
vt 0.50000000 0.07907041
vt 0.74013518 0.07907041
vt 0.25986482 0.15242301
vt 0.74013518 0.15242301
vt 0.25986482 0.22913693
vt 0.74013518 0.22913693
vt 0.25986482 0.31021977
vt 0.74013518 0.31021977
vt 0.25986482 0.38411875
vt 0.74013518 0.38411875
vt 0.25986482 0.45912667
vt 0.74013518 0.45912667
vt 0.25986482 0.54087333
vt 0.74013518 0.54087333
vt 0.25986482 0.61588125
vt 0.74013518 0.61588125
vt 0.25986482 0.68978023
vt 0.74013518 0.68978023
vt 0.25986482 0.77086307
vt 0.74013518 0.77086307
vt 0.25986482 0.84757699
vt 0.74013518 0.84757699
vt 0.25986482 0.92092959
vt 0.74013518 0.92092959
vt 0.50000000 0.92092959
vt 0.00000000 0.07907041
vt 0.00000000 0.00000000
vt 0.25986482 0.00000000
vt 0.50000000 0.00000000
vt 0.74013518 0.00000000
vt 1.00000000 0.00000000
vt 1.00000000 0.07907041
vt 0.00000000 0.15242301
vt 1.00000000 0.15242301
vt 0.00000000 0.22913693
vt 1.00000000 0.22913693
vt 0.00000000 0.31021977
vt 1.00000000 0.31021977
vt 0.00000000 0.38411875
vt 1.00000000 0.38411875
vt 0.00000000 0.45912667
vt 1.00000000 0.45912667
vt 0.00000000 0.54087333
vt 1.00000000 0.54087333
vt 0.00000000 0.61588125
vt 1.00000000 0.61588125
vt 0.00000000 0.68978023
vt 1.00000000 0.68978023
vt 0.00000000 0.77086307
vt 1.00000000 0.77086307
vt 0.00000000 0.84757699
vt 1.00000000 0.84757699
vt 0.00000000 0.92092959
vt 1.00000000 0.92092959
vt 0.25986482 1.00000000
vt 0.00000000 1.00000000
vt 0.50000000 1.00000000
vt 0.74013518 1.00000000
vt 1.00000000 1.00000000
vt 0.50000000 0.15242301
vt 0.50000000 0.22913693
vt 0.50000000 0.31021977
vt 0.50000000 0.38411875
vt 0.50000000 0.45912667
vt 0.50000000 0.54087333
vt 0.50000000 0.61588125
vt 0.50000000 0.68978023
vt 0.50000000 0.77086307
vt 0.50000000 0.84757699
vt 0.00000000 0.07907041
vt 0.00000000 0.00000000
vt 1.00000000 0.00000000
vt 1.00000000 0.07907041
vt 1.00000000 0.15242301
vt 0.00000000 0.15242301
vt 1.00000000 0.22913693
vt 0.00000000 0.22913693
vt 1.00000000 0.31021977
vt 0.00000000 0.31021977
vt 1.00000000 0.38411875
vt 0.00000000 0.38411875
vt 1.00000000 0.45912667
vt 0.00000000 0.45912667
vt 1.00000000 0.54087333
vt 0.00000000 0.54087333
vt 1.00000000 0.61588125
vt 0.00000000 0.61588125
vt 1.00000000 0.68978023
vt 0.00000000 0.68978023
vt 1.00000000 0.77086307
vt 0.00000000 0.77086307
vt 1.00000000 0.84757699
vt 0.00000000 0.84757699
vt 1.00000000 0.92092959
vt 0.00000000 0.92092959
vt 1.00000000 1.00000000
vt 0.00000000 1.00000000
vt 1.00000000 0.50000000
vt 0.94272804 0.73236153
vt 0.78403231 0.91149198
vt 0.56026767 0.99635452
vt 0.32269800 0.96750829
vt 0.12574457 0.83156127
vt 0.01452901 0.61965751
vt 0.01452901 0.38034249
vt 0.12574457 0.16843873
vt 0.32269800 0.03249171
vt 0.56026767 0.00364548
vt 0.78403231 0.08850802
vt 0.94272804 0.26763847
vt 0.49999994 0.50000000
vt 1.00000000 0.50000000
vt 0.94272804 0.26763847
vt 0.78403231 0.08850802
vt 0.56026767 0.00364548
vt 0.32269800 0.03249171
vt 0.12574457 0.16843873
vt 0.01452901 0.38034249
vt 0.01452901 0.61965751
vt 0.12574457 0.83156127
vt 0.32269800 0.96750829
vt 0.56026767 0.99635452
vt 0.78403231 0.91149198
vt 0.94272804 0.73236153
vt 0.49999994 0.50000000
vn -0.00000000 0.46472305 -0.88545609
vn 0.00000000 0.00000000 -1.00000000
vn 0.00000000 0.00000000 -1.00000000
vn 0.00000000 0.46472305 -0.88545609
vn 0.00000000 0.82298396 -0.56806461
vn -0.00000000 0.82298396 -0.56806461
vn 0.00000000 0.99270904 -0.12053533
vn -0.00000000 0.99270904 -0.12053533
vn 0.00000000 0.93501658 0.35460398
vn -0.00000000 0.93501658 0.35460398
vn 0.00000000 0.66312254 0.74851085
vn -0.00000000 0.66312254 0.74851085
vn 0.00000000 0.23931501 0.97094198
vn -0.00000000 0.23931501 0.97094198
vn -0.00000000 -0.23931501 0.97094198
vn 0.00000000 -0.23931501 0.97094198
vn -0.00000000 -0.66312254 0.74851085
vn 0.00000000 -0.66312254 0.74851085
vn -0.00000000 -0.93501658 0.35460398
vn 0.00000000 -0.93501658 0.35460398
vn -0.00000000 -0.99270904 -0.12053533
vn 0.00000000 -0.99270904 -0.12053533
vn -0.00000000 -0.82298396 -0.56806461
vn 0.00000000 -0.82298396 -0.56806461
vn -0.00000000 -0.46472305 -0.88545609
vn 0.00000000 -0.46472305 -0.88545609
vn -0.17774362 0.42940305 -0.88544917
vn -0.32860882 0.32860882 -0.88545609
vn -0.42940305 0.17774362 -0.88544917
vn -0.31476317 0.76042263 -0.56805068
vn -0.76042263 0.31476317 -0.56805068
vn -0.37967297 0.91723536 -0.12053103
vn -0.91723536 0.37967297 -0.12053103
vn -0.35760927 0.86393263 0.35459276
vn -0.86393263 0.35760927 0.35459276
vn -0.25362384 0.61271877 0.74849893
vn -0.61271877 0.25362384 0.74849893
vn -0.09153185 0.22112780 0.97093997
vn -0.22112780 0.09153185 0.97093997
vn 0.09153185 -0.22112780 0.97093997
vn 0.22112780 -0.09153185 0.97093997
vn 0.25362384 -0.61271877 0.74849893
vn 0.61271877 -0.25362384 0.74849893
vn 0.35760927 -0.86393263 0.35459276
vn 0.86393263 -0.35760927 0.35459276
vn 0.37967297 -0.91723536 -0.12053103
vn 0.91723536 -0.37967297 -0.12053103
vn 0.31476317 -0.76042263 -0.56805068
vn 0.76042263 -0.31476317 -0.56805068
vn 0.17774362 -0.42940305 -0.88544917
vn 0.42940305 -0.17774362 -0.88544917
vn 0.32860882 -0.32860882 -0.88545609
vn 0.00000000 0.00000000 -1.00000000
vn -0.00000000 -0.00000000 -1.00000000
vn 0.00000000 0.00000000 -1.00000000
vn -0.00000000 -0.00000000 -1.00000000
vn -0.46472304 -0.00018481 -0.88545607
vn -0.82298392 -0.00032727 -0.56806458
vn -0.99270896 -0.00039477 -0.12053532
vn -0.93501652 -0.00037183 0.35460396
vn -0.66312252 -0.00026370 0.74851082
vn -0.23931501 -0.00009517 0.97094197
vn 0.23931501 0.00009517 0.97094197
vn 0.66312252 0.00026370 0.74851082
vn 0.93501652 0.00037183 0.35460396
vn 0.99270896 0.00039477 -0.12053532
vn 0.82298392 0.00032727 -0.56806458
vn 0.46472304 0.00018481 -0.88545607
vn -0.58193754 0.58193754 -0.56806461
vn -0.70195129 0.70195129 -0.12053533
vn -0.66115657 0.66115657 0.35460398
vn -0.46889845 0.46889845 0.74851085
vn -0.16922127 0.16922127 0.97094198
vn 0.16922127 -0.16922127 0.97094198
vn 0.46889845 -0.46889845 0.74851085
vn 0.66115657 -0.66115657 0.35460398
vn 0.70195129 -0.70195129 -0.12053533
vn 0.58193754 -0.58193754 -0.56806461
vn 0.00000000 0.00000000 -1.00000000
vn -0.46472305 0.00000000 -0.88545609
vn -0.82298396 0.00000000 -0.56806461
vn -0.99270904 0.00000000 -0.12053533
vn -0.93501658 0.00000000 0.35460398
vn -0.66312254 0.00000000 0.74851085
vn -0.23931501 0.00000000 0.97094198
vn 0.23931501 0.00000000 0.97094198
vn 0.66312254 0.00000000 0.74851085
vn 0.93501658 -0.00000000 0.35460398
vn 0.99270904 -0.00000000 -0.12053533
vn 0.82298396 -0.00000000 -0.56806461
vn 0.46472305 -0.00000000 -0.88545609
vn 1.00000000 -0.00000000 0.00000000
vn 1.00000000 -0.00000000 0.00000000
vn 1.00000000 -0.00000000 0.00000000
vn 1.00000000 -0.00000000 0.00000000
vn 1.00000000 -0.00000000 0.00000000
vn 1.00000000 -0.00000000 0.00000000
vn 1.00000000 -0.00000000 0.00000000
vn 1.00000000 -0.00000000 0.00000000
vn 1.00000000 -0.00000000 0.00000000
vn 1.00000000 -0.00000000 0.00000000
vn 1.00000000 -0.00000000 0.00000000
vn 1.00000000 -0.00000000 0.00000000
vn 1.00000000 -0.00000000 0.00000000
vn 1.00000000 -0.00000000 0.00000000
vn -0.00000000 -1.00000000 -0.00000000
vn -0.00000000 -1.00000000 -0.00000000
vn -0.00000000 -1.00000000 -0.00000000
vn -0.00000000 -1.00000000 -0.00000000
vn -0.00000000 -1.00000000 -0.00000000
vn -0.00000000 -1.00000000 -0.00000000
vn -0.00000000 -1.00000000 -0.00000000
vn -0.00000000 -1.00000000 -0.00000000
vn -0.00000000 -1.00000000 -0.00000000
vn -0.00000000 -1.00000000 -0.00000000
vn -0.00000000 -1.00000000 -0.00000000
vn -0.00000000 -1.00000000 -0.00000000
vn -0.00000000 -1.00000000 -0.00000000
vn -0.00000000 -1.00000000 -0.00000000
s 1
usemtl Default
f 1/1/1 2/2/2 3/3/3 4/4/4
f 5/62/5 4/55/4 27/29/27 30/32/30
f 30/32/30 69/89/69 70/90/70 32/34/32
f 9/66/9 7/64/7 32/34/32 34/36/34
f 34/36/34 71/91/71 72/92/72 36/38/36
f 13/70/13 11/68/11 36/38/36 38/40/38
f 38/40/38 73/93/73 74/94/74 40/42/40
f 17/74/17 15/72/15 40/42/40 42/44/42
f 42/44/42 75/95/75 76/96/76 44/46/44
f 21/78/21 19/76/19 44/46/44 46/48/46
f 46/48/46 77/97/77 78/98/78 48/50/48
f 25/82/25 23/80/23 48/50/48 50/52/50
f 54/86/54 53/84/53 50/52/50 52/54/52
f 55/87/55 54/86/54 52/54/52 51/53/51
f 67/81/67 68/83/68 51/53/51 49/51/49
f 91/123/91 79/125/79 56/126/56 68/124/68
f 57/99/57 56/100/56 79/101/79 80/102/80
f 80/102/80 81/103/81 58/104/58 57/99/57
f 58/63/58 59/65/59 33/35/33 31/33/31
f 82/105/82 83/107/83 60/108/60 59/106/59
f 60/67/60 61/69/61 37/39/37 35/37/35
f 84/109/84 85/111/85 62/112/62 61/110/61
f 62/71/62 63/73/63 41/43/41 39/41/39
f 86/113/86 87/115/87 64/116/64 63/114/63
f 64/75/64 65/77/65 45/47/45 43/45/43
f 88/117/88 89/119/89 66/120/66 65/118/65
f 65/77/65 66/79/66 47/49/47 45/47/45
f 87/115/87 88/117/88 65/118/65 64/116/64
f 63/73/63 64/75/64 43/45/43 41/43/41
f 85/111/85 86/113/86 63/114/63 62/112/62
f 61/69/61 62/71/62 39/41/39 37/39/37
f 83/107/83 84/109/84 61/110/61 60/108/60
f 59/65/59 60/67/60 35/37/35 33/35/33
f 81/103/81 82/105/82 59/106/59 58/104/58
f 57/61/57 58/63/58 31/33/31 29/31/29
f 90/121/90 91/123/91 68/124/68 67/122/67
f 89/119/89 90/121/90 67/122/67 66/120/66
f 66/79/66 67/81/67 49/51/49 47/49/47
f 68/83/68 56/88/56 55/87/55 51/53/51
f 55/59/55 56/60/56 57/61/57 29/31/29
f 54/58/54 55/59/55 29/31/29 28/30/28
f 23/23/23 25/25/25 26/26/26 24/24/24
f 78/98/78 49/51/49 51/53/51 52/54/52
f 48/50/48 78/98/78 52/54/52 50/52/50
f 77/97/77 47/49/47 49/51/49 78/98/78
f 23/80/23 21/78/21 46/48/46 48/50/48
f 21/21/21 23/23/23 24/24/24 22/22/22
f 19/19/19 21/21/21 22/22/22 20/20/20
f 76/96/76 45/47/45 47/49/47 77/97/77
f 44/46/44 76/96/76 77/97/77 46/48/46
f 75/95/75 43/45/43 45/47/45 76/96/76
f 19/76/19 17/74/17 42/44/42 44/46/44
f 17/17/17 19/19/19 20/20/20 18/18/18
f 15/15/15 17/17/17 18/18/18 16/16/16
f 74/94/74 41/43/41 43/45/43 75/95/75
f 40/42/40 74/94/74 75/95/75 42/44/42
f 73/93/73 39/41/39 41/43/41 74/94/74
f 15/72/15 13/70/13 38/40/38 40/42/40
f 13/13/13 15/15/15 16/16/16 14/14/14
f 11/11/11 13/13/13 14/14/14 12/12/12
f 72/92/72 37/39/37 39/41/39 73/93/73
f 36/38/36 72/92/72 73/93/73 38/40/38
f 71/91/71 35/37/35 37/39/37 72/92/72
f 11/68/11 9/66/9 34/36/34 36/38/36
f 9/9/9 11/11/11 12/12/12 10/10/10
f 7/7/7 9/9/9 10/10/10 8/8/8
f 70/90/70 33/35/33 35/37/35 71/91/71
f 32/34/32 70/90/70 71/91/71 34/36/34
f 69/89/69 31/33/31 33/35/33 70/90/70
f 28/30/28 29/31/29 31/33/31 69/89/69
f 27/29/27 28/30/28 69/89/69 30/32/30
f 53/57/53 54/58/54 28/30/28 27/29/27
f 7/64/7 5/62/5 30/32/30 32/34/32
f 5/5/5 7/7/7 8/8/8 6/6/6
f 53/84/53 3/85/3 25/82/25 50/52/50
f 4/55/4 3/56/3 53/57/53 27/29/27
f 25/25/25 3/27/3 2/28/2 26/26/26
f 4/4/4 5/5/5 6/6/6 1/1/1
s 2
f 2/127/92 1/128/93 92/140/105
f 24/138/103 26/139/104 92/140/105
f 22/137/102 24/138/103 92/140/105
f 20/136/101 22/137/102 92/140/105
f 18/135/100 20/136/101 92/140/105
f 16/134/99 18/135/100 92/140/105
f 14/133/98 16/134/99 92/140/105
f 12/132/97 14/133/98 92/140/105
f 10/131/96 12/132/97 92/140/105
f 8/130/95 10/131/96 92/140/105
f 6/129/94 8/130/95 92/140/105
f 1/128/93 6/129/94 92/140/105
f 26/139/104 2/127/92 92/140/105
s 3
f 79/141/106 91/142/107 93/154/119
f 81/152/117 80/153/118 93/154/119
f 82/151/116 81/152/117 93/154/119
f 83/150/115 82/151/116 93/154/119
f 84/149/114 83/150/115 93/154/119
f 85/148/113 84/149/114 93/154/119
f 86/147/112 85/148/113 93/154/119
f 87/146/111 86/147/112 93/154/119
f 88/145/110 87/146/111 93/154/119
f 89/144/109 88/145/110 93/154/119
f 90/143/108 89/144/109 93/154/119
f 91/142/107 90/143/108 93/154/119
f 80/153/118 79/141/106 93/154/119
