mtllib flange.mtl
o object1
g object1
v 2.80003910 6.08300949 -2.06351205
v 2.80003910 5.00000000 -2.33052416
v 0.00000000 5.00000000 -1.55368278
v -0.00000000 5.72200632 -1.37567470
v -0.00000000 6.27857414 -0.88253690
v 2.80003910 6.91786122 -1.32380535
v 0.00000000 6.54228308 -0.18726430
v 2.80003910 7.31342463 -0.28089644
v 0.00000000 6.45271065 0.55094201
v 2.80003910 7.17906597 0.82641302
v -0.00000000 6.03026638 1.16292631
v 2.80003910 6.54539957 1.74438947
v 0.00000000 5.37180115 1.50844814
v 2.80003910 5.55770173 2.26267222
v 0.00000000 4.62819900 1.50844818
v 2.80003910 4.44229850 2.26267227
v -0.00000000 3.96973373 1.16292642
v 2.80003910 3.45460060 1.74438963
v 0.00000000 3.54728941 0.55094216
v 2.80003910 2.82093411 0.82641324
v 0.00000000 3.45771690 -0.18726414
v 2.80003910 2.68657534 -0.28089621
v -0.00000000 3.72142576 -0.88253677
v 2.80003910 3.08213864 -1.32380516
v -0.00000000 4.27799365 -1.37567444
v 2.80003910 3.91699048 -2.06351166
v 2.80003910 5.00000002 -0.00000009
v 0.00000000 5.00000001 -0.00000006
vt 0.00000000 0.07692399
vt 0.00000000 0.00000000
vt 1.00000000 0.00000000
vt 1.00000000 0.07692399
vt 1.00000000 0.15384636
vt 0.00000000 0.15384636
vt 1.00000000 0.23076838
vt 0.00000000 0.23076838
vt 1.00000000 0.30769185
vt 0.00000000 0.30769185
vt 1.00000000 0.38461616
vt 0.00000000 0.38461616
vt 1.00000000 0.46153904
vt 0.00000000 0.46153904
vt 1.00000000 0.53846095
vt 0.00000000 0.53846095
vt 1.00000000 0.61538382
vt 0.00000000 0.61538382
vt 1.00000000 0.69230814
vt 0.00000000 0.69230814
vt 1.00000000 0.76923160
vt 0.00000000 0.76923160
vt 1.00000000 0.84615363
vt 0.00000000 0.84615363
vt 1.00000000 0.92307607
vt 0.00000000 0.92307607
vt 1.00000000 1.00000000
vt 0.00000000 1.00000000
vt 0.99999999 0.50000000
vt 0.94271415 0.73235318
vt 0.78401449 0.91146564
vt 0.56026464 0.99633140
vt 0.32269802 0.96750555
vt 0.12575169 0.83155622
vt 0.01455723 0.61965158
vt 0.01455722 0.38034847
vt 0.12575165 0.16844382
vt 0.32269798 0.03249447
vt 0.56026459 0.00366860
vt 0.78401445 0.08853433
vt 0.94271406 0.26764681
vt 0.50000001 0.50000000
vt 0.99999995 0.50000000
vt 0.94345014 0.27354241
vt 0.78678978 0.09897463
vt 0.56591506 0.01626223
vt 0.33140112 0.04435669
vt 0.13698551 0.17685654
vt 0.02721990 0.38338444
vt 0.02721992 0.61661561
vt 0.13698555 0.82314350
vt 0.33140117 0.95564332
vt 0.56591511 0.98373776
vt 0.78678982 0.90102534
vt 0.94345022 0.72645758
vt 0.50642487 0.50000000
vn -0.26733316 0.44823552 -0.85300522
vn -0.26734122 -0.00000073 -0.96360193
vn -0.26734122 -0.00000073 -0.96360193
vn -0.26733316 0.44823552 -0.85300522
vn -0.26732543 0.79308739 -0.54731116
vn -0.26732543 0.79308739 -0.54731116
vn -0.26732962 0.95652943 -0.11656042
vn -0.26732962 0.95652943 -0.11656042
vn -0.26733993 0.90109031 0.34141706
vn -0.26733993 0.90109031 0.34141706
vn -0.26733688 0.63864829 0.72156729
vn -0.26733688 0.63864829 0.72156729
vn -0.26732690 0.23033785 0.93567131
vn -0.26732690 0.23033785 0.93567131
vn -0.26732690 -0.23033776 0.93567134
vn -0.26732690 -0.23033776 0.93567134
vn -0.26733688 -0.63864822 0.72156735
vn -0.26733688 -0.63864822 0.72156735
vn -0.26733993 -0.90109028 0.34141715
vn -0.26733993 -0.90109028 0.34141715
vn -0.26732962 -0.95652944 -0.11656032
vn -0.26732962 -0.95652944 -0.11656032
vn -0.26732543 -0.79308748 -0.54731103
vn -0.26732543 -0.79308748 -0.54731103
vn -0.26733312 -0.44823487 -0.85300557
vn -0.26733312 -0.44823487 -0.85300557
vn 1.00000000 0.00000000 0.00000000
vn 1.00000000 0.00000000 0.00000000
vn 1.00000000 0.00000000 0.00000000
vn 1.00000000 0.00000000 0.00000000
vn 1.00000000 0.00000000 0.00000000
vn 1.00000000 0.00000000 0.00000000
vn 1.00000000 0.00000000 0.00000000
vn 1.00000000 0.00000000 0.00000000
vn 1.00000000 0.00000000 0.00000000
vn 1.00000000 0.00000000 0.00000000
vn 1.00000000 0.00000000 0.00000000
vn 1.00000000 0.00000000 0.00000000
vn 1.00000000 0.00000000 0.00000000
vn 1.00000000 0.00000000 0.00000000
vn -1.00000000 0.00000000 -0.00000000
vn -1.00000000 0.00000000 -0.00000000
vn -1.00000000 0.00000000 -0.00000000
vn -1.00000000 0.00000000 -0.00000000
vn -1.00000000 0.00000000 -0.00000000
vn -1.00000000 0.00000000 -0.00000000
vn -1.00000000 0.00000000 -0.00000000
vn -1.00000000 0.00000000 -0.00000000
vn -1.00000000 0.00000000 -0.00000000
vn -1.00000000 0.00000000 -0.00000000
vn -1.00000000 0.00000000 -0.00000000
vn -1.00000000 0.00000000 -0.00000000
vn -1.00000000 0.00000000 -0.00000000
vn -1.00000000 0.00000000 -0.00000000
s 1
usemtl Default
f 1/1/1 2/2/2 3/3/3 4/4/4
f 25/25/25 3/27/3 2/28/2 26/26/26
f 23/23/23 25/25/25 26/26/26 24/24/24
f 21/21/21 23/23/23 24/24/24 22/22/22
f 19/19/19 21/21/21 22/22/22 20/20/20
f 17/17/17 19/19/19 20/20/20 18/18/18
f 15/15/15 17/17/17 18/18/18 16/16/16
f 13/13/13 15/15/15 16/16/16 14/14/14
f 11/11/11 13/13/13 14/14/14 12/12/12
f 9/9/9 11/11/11 12/12/12 10/10/10
f 7/7/7 9/9/9 10/10/10 8/8/8
f 5/5/5 7/7/7 8/8/8 6/6/6
f 4/4/4 5/5/5 6/6/6 1/1/1
s 2
f 2/29/27 1/30/28 27/42/40
f 24/40/38 26/41/39 27/42/40
f 22/39/37 24/40/38 27/42/40
f 20/38/36 22/39/37 27/42/40
f 18/37/35 20/38/36 27/42/40
f 16/36/34 18/37/35 27/42/40
f 14/35/33 16/36/34 27/42/40
f 12/34/32 14/35/33 27/42/40
f 10/33/31 12/34/32 27/42/40
f 8/32/30 10/33/31 27/42/40
f 6/31/29 8/32/30 27/42/40
f 1/30/28 6/31/29 27/42/40
f 26/41/39 2/29/27 27/42/40
s 3
f 3/43/41 25/44/42 28/56/54
f 5/54/52 4/55/53 28/56/54
f 7/53/51 5/54/52 28/56/54
f 9/52/50 7/53/51 28/56/54
f 11/51/49 9/52/50 28/56/54
f 13/50/48 11/51/49 28/56/54
f 15/49/47 13/50/48 28/56/54
f 17/48/46 15/49/47 28/56/54
f 19/47/45 17/48/46 28/56/54
f 21/46/44 19/47/45 28/56/54
f 23/45/43 21/46/44 28/56/54
f 25/44/42 23/45/43 28/56/54
f 4/55/53 3/43/41 28/56/54
