mtllib pipe.mtl
o object1
g object1
v 0.00000000 5.00000000 -1.55368278
v 0.00000000 4.27796362 -1.37571568
v 0.00000000 3.72134426 -0.88259258
v 0.00000000 3.45764600 -0.18728139
v 0.00000000 3.54728211 0.55094545
v 0.00000000 3.96971729 1.16294785
v 0.00000000 4.62817833 1.50853532
v 0.00000000 5.37182167 1.50853532
v 0.00000000 6.03028271 1.16294785
v 0.00000000 6.45271789 0.55094545
v 0.00000000 6.54235400 -0.18728139
v 0.00000000 6.27865574 -0.88259258
v 0.00000000 5.72203638 -1.37571568
v -0.00000000 5.00000000 0.00000019
v 1.99888909 5.00000000 -1.55368278
v 1.99888909 5.72203638 -1.37571568
v 1.99888909 6.27865574 -0.88259258
v 1.99888909 6.54235400 -0.18728139
v 1.99888909 6.45271789 0.55094545
v 1.99888909 6.03028271 1.16294785
v 1.99888909 5.37182167 1.50853532
v 1.99888909 4.62817833 1.50853532
v 1.99888909 3.96971729 1.16294785
v 1.99888909 3.54728211 0.55094545
v 1.99888909 3.45764600 -0.18728139
v 1.99888909 3.72134426 -0.88259258
v 1.99888909 4.27796362 -1.37571568
v 9.99888909 5.00000000 -1.55368278
v 9.99888909 5.72203638 -1.37571568
v 9.99888909 6.27865574 -0.88259258
v 9.99888909 6.54235400 -0.18728139
v 9.99888909 6.45271789 0.55094545
v 9.99888909 6.03028271 1.16294785
v 9.99888909 5.37182167 1.50853532
v 9.99888909 4.62817833 1.50853532
v 9.99888909 3.96971729 1.16294785
v 9.99888909 3.54728211 0.55094545
v 9.99888909 3.45764600 -0.18728139
v 9.99888909 3.72134426 -0.88259258
v 9.99888909 4.27796362 -1.37571568
v 9.99888909 5.00000000 0.00000019
vt 1.00000000 0.50000000
vt 0.94272804 0.26763847
vt 0.78403231 0.08850802
vt 0.56026767 0.00364548
vt 0.32269800 0.03249171
vt 0.12574457 0.16843873
vt 0.01452901 0.38034249
vt 0.01452901 0.61965751
vt 0.12574457 0.83156127
vt 0.32269800 0.96750829
vt 0.56026767 0.99635452
vt 0.78403231 0.91149198
vt 0.94272804 0.73236153
vt 0.49999994 0.50000000
vt 0.00000000 0.07907041
vt 0.00000000 0.00000000
vt 1.00000000 0.00000000
vt 1.00000000 0.07907041
vt 1.00000000 0.15242301
vt 0.00000000 0.15242301
vt 1.00000000 0.22913693
vt 0.00000000 0.22913693
vt 1.00000000 0.31021977
vt 0.00000000 0.31021977
vt 1.00000000 0.38411875
vt 0.00000000 0.38411875
vt 1.00000000 0.45912667
vt 0.00000000 0.45912667
vt 1.00000000 0.54087333
vt 0.00000000 0.54087333
vt 1.00000000 0.61588125
vt 0.00000000 0.61588125
vt 1.00000000 0.68978023
vt 0.00000000 0.68978023
vt 1.00000000 0.77086307
vt 0.00000000 0.77086307
vt 1.00000000 0.84757699
vt 0.00000000 0.84757699
vt 1.00000000 0.92092959
vt 0.00000000 0.92092959
vt 1.00000000 1.00000000
vt 0.00000000 1.00000000
vt 0.00000000 0.07907041
vt 0.00000000 0.00000000
vt 1.00000000 0.00000000
vt 1.00000000 0.07907041
vt 1.00000000 0.15242301
vt 0.00000000 0.15242301
vt 1.00000000 0.22913693
vt 0.00000000 0.22913693
vt 1.00000000 0.31021977
vt 0.00000000 0.31021977
vt 1.00000000 0.38411875
vt 0.00000000 0.38411875
vt 1.00000000 0.45912667
vt 0.00000000 0.45912667
vt 1.00000000 0.54087333
vt 0.00000000 0.54087333
vt 1.00000000 0.61588125
vt 0.00000000 0.61588125
vt 1.00000000 0.68978023
vt 0.00000000 0.68978023
vt 1.00000000 0.77086307
vt 0.00000000 0.77086307
vt 1.00000000 0.84757699
vt 0.00000000 0.84757699
vt 1.00000000 0.92092959
vt 0.00000000 0.92092959
vt 1.00000000 1.00000000
vt 0.00000000 1.00000000
vt 1.00000000 0.50000000
vt 0.94272804 0.73236153
vt 0.78403231 0.91149198
vt 0.56026767 0.99635452
vt 0.32269800 0.96750829
vt 0.12574457 0.83156127
vt 0.01452901 0.61965751
vt 0.01452901 0.38034249
vt 0.12574457 0.16843873
vt 0.32269800 0.03249171
vt 0.56026767 0.00364548
vt 0.78403231 0.08850802
vt 0.94272804 0.26763847
vt 0.49999994 0.50000000
vn -1.00000000 0.00000000 0.00000000
vn -1.00000000 0.00000000 0.00000000
vn -1.00000000 0.00000000 0.00000000
vn -1.00000000 0.00000000 0.00000000
vn -1.00000000 0.00000000 0.00000000
vn -1.00000000 0.00000000 0.00000000
vn -1.00000000 0.00000000 0.00000000
vn -1.00000000 0.00000000 0.00000000
vn -1.00000000 0.00000000 0.00000000
vn -1.00000000 0.00000000 0.00000000
vn -1.00000000 0.00000000 0.00000000
vn -1.00000000 0.00000000 0.00000000
vn -1.00000000 0.00000000 0.00000000
vn -1.00000000 0.00000000 0.00000000
vn -0.00000000 0.46472305 -0.88545609
vn -0.00000000 -0.00000000 -1.00000000
vn -0.00000000 -0.00000000 -1.00000000
vn -0.00000000 0.46472305 -0.88545609
vn -0.00000000 0.82298396 -0.56806461
vn -0.00000000 0.82298396 -0.56806461
vn -0.00000000 0.99270904 -0.12053533
vn -0.00000000 0.99270904 -0.12053533
vn 0.00000000 0.93501658 0.35460398
vn 0.00000000 0.93501658 0.35460398
vn 0.00000000 0.66312254 0.74851085
vn 0.00000000 0.66312254 0.74851085
vn 0.00000000 0.23931501 0.97094198
vn 0.00000000 0.23931501 0.97094198
vn 0.00000000 -0.23931501 0.97094198
vn 0.00000000 -0.23931501 0.97094198
vn 0.00000000 -0.66312254 0.74851085
vn 0.00000000 -0.66312254 0.74851085
vn 0.00000000 -0.93501658 0.35460398
vn 0.00000000 -0.93501658 0.35460398
vn -0.00000000 -0.99270904 -0.12053533
vn -0.00000000 -0.99270904 -0.12053533
vn -0.00000000 -0.82298396 -0.56806461
vn -0.00000000 -0.82298396 -0.56806461
vn -0.00000000 -0.46472305 -0.88545609
vn -0.00000000 -0.46472305 -0.88545609
vn -0.00000000 -0.00000000 -1.00000000
vn -0.00000000 0.46472305 -0.88545609
vn -0.00000000 0.82298396 -0.56806461
vn -0.00000000 0.99270904 -0.12053533
vn 0.00000000 0.93501658 0.35460398
vn 0.00000000 0.66312254 0.74851085
vn 0.00000000 0.23931501 0.97094198
vn 0.00000000 -0.23931501 0.97094198
vn 0.00000000 -0.66312254 0.74851085
vn 0.00000000 -0.93501658 0.35460398
vn -0.00000000 -0.99270904 -0.12053533
vn -0.00000000 -0.82298396 -0.56806461
vn -0.00000000 -0.46472305 -0.88545609
vn 1.00000000 0.00000000 -0.00000000
vn 1.00000000 -0.00000000 -0.00000000
vn 1.00000000 -0.00000000 -0.00000000
vn 1.00000000 -0.00000000 -0.00000000
vn 1.00000000 -0.00000000 -0.00000000
vn 1.00000000 -0.00000000 -0.00000000
vn 1.00000000 -0.00000000 -0.00000000
vn 1.00000000 -0.00000000 -0.00000000
vn 1.00000000 -0.00000000 -0.00000000
vn 1.00000000 -0.00000000 -0.00000000
vn 1.00000000 -0.00000000 -0.00000000
vn 1.00000000 -0.00000000 -0.00000000
vn 1.00000000 -0.00000000 -0.00000000
vn 1.00000000 -0.00000000 -0.00000000
s 1
usemtl Default
f 1/1/1 2/2/2 14/14/14
f 12/12/12 13/13/13 14/14/14
f 11/11/11 12/12/12 14/14/14
f 10/10/10 11/11/11 14/14/14
f 9/9/9 10/10/10 14/14/14
f 8/8/8 9/9/9 14/14/14
f 7/7/7 8/8/8 14/14/14
f 6/6/6 7/7/7 14/14/14
f 5/5/5 6/6/6 14/14/14
f 4/4/4 5/5/5 14/14/14
f 3/3/3 4/4/4 14/14/14
f 2/2/2 3/3/3 14/14/14
f 13/13/13 1/1/1 14/14/14
s 2
f 16/18/18 15/17/17 1/16/16 13/15/15
f 27/68/39 15/70/17 28/69/41 40/67/53
f 26/66/37 27/68/39 40/67/53 39/65/52
f 25/64/35 26/66/37 39/65/52 38/63/51
f 24/62/33 25/64/35 38/63/51 37/61/50
f 23/60/31 24/62/33 37/61/50 36/59/49
f 22/58/29 23/60/31 36/59/49 35/57/48
f 21/56/27 22/58/29 35/57/48 34/55/47
f 20/54/25 21/56/27 34/55/47 33/53/46
f 19/52/23 20/54/25 33/53/46 32/51/45
f 18/50/21 19/52/23 32/51/45 31/49/44
f 17/48/19 18/50/21 31/49/44 30/47/43
f 12/20/20 11/22/22 18/21/21 17/19/19
f 11/22/22 10/24/24 19/23/23 18/21/21
f 10/24/24 9/26/26 20/25/25 19/23/23
f 9/26/26 8/28/28 21/27/27 20/25/25
f 8/28/28 7/30/30 22/29/29 21/27/27
f 7/30/30 6/32/32 23/31/31 22/29/29
f 6/32/32 5/34/34 24/33/33 23/31/31
f 5/34/34 4/36/36 25/35/35 24/33/33
f 4/36/36 3/38/38 26/37/37 25/35/35
f 3/38/38 2/40/40 27/39/39 26/37/37
f 2/40/40 1/42/16 15/41/17 27/39/39
f 16/43/18 17/48/19 30/47/43 29/46/42
f 29/46/42 28/45/41 15/44/17 16/43/18
f 13/15/15 12/20/20 17/19/19 16/18/18
s 3
f 28/71/54 29/72/55 41/84/67
f 39/82/65 40/83/66 41/84/67
f 38/81/64 39/82/65 41/84/67
f 37/80/63 38/81/64 41/84/67
f 36/79/62 37/80/63 41/84/67
f 35/78/61 36/79/62 41/84/67
f 34/77/60 35/78/61 41/84/67
f 33/76/59 34/77/60 41/84/67
f 32/75/58 33/76/59 41/84/67
f 31/74/57 32/75/58 41/84/67
f 30/73/56 31/74/57 41/84/67
f 29/72/55 30/73/56 41/84/67
f 40/83/66 28/71/54 41/84/67
